<svg width="10" height="10" viewBox="0 0 10 10" fill="none" xmlns="http://www.w3.org/2000/svg">
<path d="M5 8.34888e-09C5.97968 -5.65935e-05 6.93779 0.28769 7.75533 0.827499C8.57287 1.36731 9.21382 2.1354 9.59856 3.03636C9.98331 3.93733 10.0949 4.93147 9.91948 5.89531C9.74405 6.85915 9.28935 7.75023 8.61183 8.45786C7.93431 9.16549 7.06384 9.65849 6.10853 9.87563C5.15322 10.0928 4.15517 10.0245 3.23834 9.67926C2.3215 9.33403 1.52629 8.72707 0.951458 7.93376C0.37663 7.14045 0.0475181 6.19575 0.00500011 5.217L0 5L0.00500011 4.783C0.0609194 3.49575 0.611607 2.27978 1.54222 1.38866C2.47284 0.497541 3.71154 7.44508e-05 5 8.34888e-09Z" fill="#343A40"/>
</svg>
