<svg width="24" height="24" viewBox="0 0 24 24" fill="none" xmlns="http://www.w3.org/2000/svg">
<path d="M17.998 8C18.85 8 19.295 8.986 18.781 9.623L18.705 9.707L12.705 15.707C12.5328 15.8792 12.3037 15.9826 12.0607 15.9979C11.8177 16.0132 11.5774 15.9393 11.385 15.79L11.291 15.707L5.291 9.707L5.208 9.613L5.154 9.536L5.1 9.44L5.083 9.404L5.056 9.337L5.024 9.229L5.014 9.176L5.004 9.116L5 9.059V8.941L5.005 8.883L5.014 8.823L5.024 8.771L5.056 8.663L5.083 8.596L5.153 8.464L5.218 8.374L5.291 8.293L5.385 8.21L5.462 8.156L5.558 8.102L5.594 8.085L5.661 8.058L5.769 8.026L5.822 8.016L5.882 8.006L5.939 8.002L17.998 8Z" fill="#343A40"/>
</svg>
